<?xml version="1.0" encoding="UTF-8" standalone="no"?>
<!DOCTYPE svg PUBLIC "-//W3C//DTD SVG 1.1//EN"
 "http://www.w3.org/Graphics/SVG/1.1/DTD/svg11.dtd">
<!-- Generated by graphviz version 5.0.0 (20220707.1540)
 -->
<!-- Title: dependencies Pages: 1 -->
<svg width="1922pt" height="247pt"
 viewBox="0.00 0.00 1922.00 246.80" xmlns="http://www.w3.org/2000/svg" xmlns:xlink="http://www.w3.org/1999/xlink">
<g id="graph0" class="graph" transform="scale(1 1) rotate(0) translate(4 242.8)">
<title>dependencies</title>
<polygon fill="white" stroke="transparent" points="-4,4 -4,-242.8 1918,-242.8 1918,4 -4,4"/>
<text text-anchor="middle" x="957" y="-8.2" font-family="sans-serif" font-size="14.00">dependencies</text>
<g id="clust1" class="cluster">
<title>cluster_MongoModule</title>
<polygon fill="none" stroke="black" stroke-dasharray="1,5" points="8,-32.8 8,-230.8 1906,-230.8 1906,-32.8 8,-32.8"/>
</g>
<g id="clust4" class="cluster">
<title>cluster_MongoModule_exports</title>
<polygon fill="none" stroke="black" points="299,-170.8 299,-222.8 1562,-222.8 1562,-170.8 299,-170.8"/>
</g>
<g id="clust6" class="cluster">
<title>cluster_MongoModule_providers</title>
<polygon fill="none" stroke="black" points="16,-40.8 16,-92.8 1898,-92.8 1898,-40.8 16,-40.8"/>
</g>
<!-- IngredientMongoService  -->
<g id="node1" class="node">
<title>IngredientMongoService </title>
<polygon fill="#fb8072" stroke="black" points="1553.96,-214.8 1394.04,-214.8 1394.04,-178.8 1553.96,-178.8 1553.96,-214.8"/>
<text text-anchor="middle" x="1474" y="-192.6" font-family="Times,serif" font-size="14.00">IngredientMongoService </text>
</g>
<!-- IngredientRepository  -->
<g id="node2" class="node">
<title>IngredientRepository </title>
<polygon fill="#fb8072" stroke="black" points="1376.47,-214.8 1237.53,-214.8 1237.53,-178.8 1376.47,-178.8 1376.47,-214.8"/>
<text text-anchor="middle" x="1307" y="-192.6" font-family="Times,serif" font-size="14.00">IngredientRepository </text>
</g>
<!-- MealPlannerMongoService  -->
<g id="node3" class="node">
<title>MealPlannerMongoService </title>
<polygon fill="#fb8072" stroke="black" points="1219.96,-214.8 1046.04,-214.8 1046.04,-178.8 1219.96,-178.8 1219.96,-214.8"/>
<text text-anchor="middle" x="1133" y="-192.6" font-family="Times,serif" font-size="14.00">MealPlannerMongoService </text>
</g>
<!-- MealPlannerRepository  -->
<g id="node4" class="node">
<title>MealPlannerRepository </title>
<polygon fill="#fb8072" stroke="black" points="1028.47,-214.8 875.53,-214.8 875.53,-178.8 1028.47,-178.8 1028.47,-214.8"/>
<text text-anchor="middle" x="952" y="-192.6" font-family="Times,serif" font-size="14.00">MealPlannerRepository </text>
</g>
<!-- RecipeMongoService  -->
<g id="node5" class="node">
<title>RecipeMongoService </title>
<polygon fill="#fb8072" stroke="black" points="857.3,-214.8 716.7,-214.8 716.7,-178.8 857.3,-178.8 857.3,-214.8"/>
<text text-anchor="middle" x="787" y="-192.6" font-family="Times,serif" font-size="14.00">RecipeMongoService </text>
</g>
<!-- RecipeRepository  -->
<g id="node6" class="node">
<title>RecipeRepository </title>
<polygon fill="#fb8072" stroke="black" points="698.81,-214.8 579.19,-214.8 579.19,-178.8 698.81,-178.8 698.81,-214.8"/>
<text text-anchor="middle" x="639" y="-192.6" font-family="Times,serif" font-size="14.00">RecipeRepository </text>
</g>
<!-- UserMongoService  -->
<g id="node7" class="node">
<title>UserMongoService </title>
<polygon fill="#fb8072" stroke="black" points="561.36,-214.8 432.64,-214.8 432.64,-178.8 561.36,-178.8 561.36,-214.8"/>
<text text-anchor="middle" x="497" y="-192.6" font-family="Times,serif" font-size="14.00">UserMongoService </text>
</g>
<!-- UserRepository  -->
<g id="node8" class="node">
<title>UserRepository </title>
<polygon fill="#fb8072" stroke="black" points="414.88,-214.8 307.12,-214.8 307.12,-178.8 414.88,-178.8 414.88,-214.8"/>
<text text-anchor="middle" x="361" y="-192.6" font-family="Times,serif" font-size="14.00">UserRepository </text>
</g>
<!-- MongoModule -->
<g id="node9" class="node">
<title>MongoModule</title>
<polygon fill="#8dd3c7" stroke="black" points="919,-149.8 916,-153.8 895,-153.8 892,-149.8 819,-149.8 819,-113.8 919,-113.8 919,-149.8"/>
<text text-anchor="middle" x="869" y="-127.6" font-family="Times,serif" font-size="14.00">MongoModule</text>
</g>
<!-- MongoModule&#45;&gt;IngredientMongoService  -->
<g id="edge1" class="edge">
<title>MongoModule&#45;&gt;IngredientMongoService </title>
<path fill="none" stroke="black" stroke-dasharray="5,2" d="M919.16,-136.8C1055.6,-136.8 1423.25,-136.8 1423.25,-136.8 1423.25,-136.8 1423.25,-168.8 1423.25,-168.8"/>
<polygon fill="black" stroke="black" points="1419.75,-168.8 1423.25,-178.8 1426.75,-168.8 1419.75,-168.8"/>
</g>
<!-- MongoModule&#45;&gt;IngredientRepository  -->
<g id="edge2" class="edge">
<title>MongoModule&#45;&gt;IngredientRepository </title>
<path fill="none" stroke="black" stroke-dasharray="5,2" d="M919.24,-140.8C1034.29,-140.8 1307,-140.8 1307,-140.8 1307,-140.8 1307,-168.77 1307,-168.77"/>
<polygon fill="black" stroke="black" points="1303.5,-168.77 1307,-178.77 1310.5,-168.77 1303.5,-168.77"/>
</g>
<!-- MongoModule&#45;&gt;MealPlannerMongoService  -->
<g id="edge3" class="edge">
<title>MongoModule&#45;&gt;MealPlannerMongoService </title>
<path fill="none" stroke="black" stroke-dasharray="5,2" d="M919.19,-145.8C993.21,-145.8 1123.01,-145.8 1123.01,-145.8 1123.01,-145.8 1123.01,-168.68 1123.01,-168.68"/>
<polygon fill="black" stroke="black" points="1119.51,-168.68 1123.01,-178.68 1126.51,-168.68 1119.51,-168.68"/>
</g>
<!-- MongoModule&#45;&gt;MealPlannerRepository  -->
<g id="edge4" class="edge">
<title>MongoModule&#45;&gt;MealPlannerRepository </title>
<path fill="none" stroke="black" stroke-dasharray="5,2" d="M897.38,-149.91C897.38,-149.91 897.38,-168.79 897.38,-168.79"/>
<polygon fill="black" stroke="black" points="893.88,-168.79 897.38,-178.79 900.88,-168.79 893.88,-168.79"/>
</g>
<!-- MongoModule&#45;&gt;RecipeMongoService  -->
<g id="edge5" class="edge">
<title>MongoModule&#45;&gt;RecipeMongoService </title>
<path fill="none" stroke="black" stroke-dasharray="5,2" d="M838.2,-149.91C838.2,-149.91 838.2,-168.79 838.2,-168.79"/>
<polygon fill="black" stroke="black" points="834.7,-168.79 838.2,-178.79 841.7,-168.79 834.7,-168.79"/>
</g>
<!-- MongoModule&#45;&gt;RecipeRepository  -->
<g id="edge6" class="edge">
<title>MongoModule&#45;&gt;RecipeRepository </title>
<path fill="none" stroke="black" stroke-dasharray="5,2" d="M818.81,-145.8C751.13,-145.8 639,-145.8 639,-145.8 639,-145.8 639,-168.68 639,-168.68"/>
<polygon fill="black" stroke="black" points="635.5,-168.68 639,-178.68 642.5,-168.68 635.5,-168.68"/>
</g>
<!-- MongoModule&#45;&gt;UserMongoService  -->
<g id="edge7" class="edge">
<title>MongoModule&#45;&gt;UserMongoService </title>
<path fill="none" stroke="black" stroke-dasharray="5,2" d="M818.77,-140.8C727.84,-140.8 545.26,-140.8 545.26,-140.8 545.26,-140.8 545.26,-168.77 545.26,-168.77"/>
<polygon fill="black" stroke="black" points="541.76,-168.77 545.26,-178.77 548.76,-168.77 541.76,-168.77"/>
</g>
<!-- MongoModule&#45;&gt;UserRepository  -->
<g id="edge8" class="edge">
<title>MongoModule&#45;&gt;UserRepository </title>
<path fill="none" stroke="black" stroke-dasharray="5,2" d="M818.75,-136.8C696.82,-136.8 395.23,-136.8 395.23,-136.8 395.23,-136.8 395.23,-168.8 395.23,-168.8"/>
<polygon fill="black" stroke="black" points="391.73,-168.8 395.23,-178.8 398.73,-168.8 391.73,-168.8"/>
</g>
<!-- IngredientMongoService -->
<g id="node10" class="node">
<title>IngredientMongoService</title>
<ellipse fill="#fdb462" stroke="black" cx="1782" cy="-66.8" rx="107.66" ry="18"/>
<text text-anchor="middle" x="1782" y="-62.6" font-family="Times,serif" font-size="14.00">IngredientMongoService</text>
</g>
<!-- IngredientMongoService&#45;&gt;MongoModule -->
<g id="edge9" class="edge">
<title>IngredientMongoService&#45;&gt;MongoModule</title>
<path fill="none" stroke="black" d="M1782,-84.91C1782,-104.14 1782,-131.8 1782,-131.8 1782,-131.8 929.06,-131.8 929.06,-131.8"/>
<polygon fill="black" stroke="black" points="929.06,-128.3 919.06,-131.8 929.06,-135.3 929.06,-128.3"/>
</g>
<!-- IngredientRepository -->
<g id="node11" class="node">
<title>IngredientRepository</title>
<ellipse fill="#fdb462" stroke="black" cx="1563" cy="-66.8" rx="93.2" ry="18"/>
<text text-anchor="middle" x="1563" y="-62.6" font-family="Times,serif" font-size="14.00">IngredientRepository</text>
</g>
<!-- IngredientRepository&#45;&gt;MongoModule -->
<g id="edge10" class="edge">
<title>IngredientRepository&#45;&gt;MongoModule</title>
<path fill="none" stroke="black" d="M1511.81,-81.88C1511.81,-99.94 1511.81,-127.8 1511.81,-127.8 1511.81,-127.8 929.17,-127.8 929.17,-127.8"/>
<polygon fill="black" stroke="black" points="929.17,-124.3 919.17,-127.8 929.17,-131.3 929.17,-124.3"/>
</g>
<!-- MealPlannerMongoService -->
<g id="node12" class="node">
<title>MealPlannerMongoService</title>
<ellipse fill="#fdb462" stroke="black" cx="1335" cy="-66.8" rx="117.47" ry="18"/>
<text text-anchor="middle" x="1335" y="-62.6" font-family="Times,serif" font-size="14.00">MealPlannerMongoService</text>
</g>
<!-- MealPlannerMongoService&#45;&gt;MongoModule -->
<g id="edge11" class="edge">
<title>MealPlannerMongoService&#45;&gt;MongoModule</title>
<path fill="none" stroke="black" d="M1228.75,-74.59C1228.75,-89.97 1228.75,-122.8 1228.75,-122.8 1228.75,-122.8 929.02,-122.8 929.02,-122.8"/>
<polygon fill="black" stroke="black" points="929.02,-119.3 919.02,-122.8 929.02,-126.3 929.02,-119.3"/>
</g>
<!-- MealPlannerRepository -->
<g id="node13" class="node">
<title>MealPlannerRepository</title>
<ellipse fill="#fdb462" stroke="black" cx="1097" cy="-66.8" rx="102.52" ry="18"/>
<text text-anchor="middle" x="1097" y="-62.6" font-family="Times,serif" font-size="14.00">MealPlannerRepository</text>
</g>
<!-- MealPlannerRepository&#45;&gt;MongoModule -->
<g id="edge12" class="edge">
<title>MealPlannerRepository&#45;&gt;MongoModule</title>
<path fill="none" stroke="black" d="M1011.24,-76.83C1011.24,-91.94 1011.24,-118.8 1011.24,-118.8 1011.24,-118.8 929.15,-118.8 929.15,-118.8"/>
<polygon fill="black" stroke="black" points="929.15,-115.3 919.15,-118.8 929.15,-122.3 929.15,-115.3"/>
</g>
<!-- MongooseConfigService -->
<g id="node14" class="node">
<title>MongooseConfigService</title>
<ellipse fill="#fdb462" stroke="black" cx="869" cy="-66.8" rx="107.68" ry="18"/>
<text text-anchor="middle" x="869" y="-62.6" font-family="Times,serif" font-size="14.00">MongooseConfigService</text>
</g>
<!-- MongooseConfigService&#45;&gt;MongoModule -->
<g id="edge13" class="edge">
<title>MongooseConfigService&#45;&gt;MongoModule</title>
<path fill="none" stroke="black" d="M869,-84.91C869,-84.91 869,-103.79 869,-103.79"/>
<polygon fill="black" stroke="black" points="865.5,-103.79 869,-113.79 872.5,-103.79 865.5,-103.79"/>
</g>
<!-- RecipeMongoService -->
<g id="node15" class="node">
<title>RecipeMongoService</title>
<ellipse fill="#fdb462" stroke="black" cx="649" cy="-66.8" rx="94.91" ry="18"/>
<text text-anchor="middle" x="649" y="-62.6" font-family="Times,serif" font-size="14.00">RecipeMongoService</text>
</g>
<!-- RecipeMongoService&#45;&gt;MongoModule -->
<g id="edge14" class="edge">
<title>RecipeMongoService&#45;&gt;MongoModule</title>
<path fill="none" stroke="black" d="M730.15,-76.34C730.15,-91.35 730.15,-118.8 730.15,-118.8 730.15,-118.8 808.87,-118.8 808.87,-118.8"/>
<polygon fill="black" stroke="black" points="808.87,-122.3 818.87,-118.8 808.87,-115.3 808.87,-122.3"/>
</g>
<!-- RecipeRepository -->
<g id="node16" class="node">
<title>RecipeRepository</title>
<ellipse fill="#fdb462" stroke="black" cx="456" cy="-66.8" rx="80.46" ry="18"/>
<text text-anchor="middle" x="456" y="-62.6" font-family="Times,serif" font-size="14.00">RecipeRepository</text>
</g>
<!-- RecipeRepository&#45;&gt;MongoModule -->
<g id="edge15" class="edge">
<title>RecipeRepository&#45;&gt;MongoModule</title>
<path fill="none" stroke="black" d="M484.52,-83.91C484.52,-100.37 484.52,-122.8 484.52,-122.8 484.52,-122.8 808.74,-122.8 808.74,-122.8"/>
<polygon fill="black" stroke="black" points="808.74,-126.3 818.74,-122.8 808.74,-119.3 808.74,-126.3"/>
</g>
<!-- UserMongoService -->
<g id="node17" class="node">
<title>UserMongoService</title>
<ellipse fill="#fdb462" stroke="black" cx="272" cy="-66.8" rx="86.26" ry="18"/>
<text text-anchor="middle" x="272" y="-62.6" font-family="Times,serif" font-size="14.00">UserMongoService</text>
</g>
<!-- UserMongoService&#45;&gt;MongoModule -->
<g id="edge16" class="edge">
<title>UserMongoService&#45;&gt;MongoModule</title>
<path fill="none" stroke="black" d="M332.72,-79.74C332.72,-97.64 332.72,-127.8 332.72,-127.8 332.72,-127.8 808.55,-127.8 808.55,-127.8"/>
<polygon fill="black" stroke="black" points="808.55,-131.3 818.55,-127.8 808.55,-124.3 808.55,-131.3"/>
</g>
<!-- UserRepository -->
<g id="node18" class="node">
<title>UserRepository</title>
<ellipse fill="#fdb462" stroke="black" cx="96" cy="-66.8" rx="71.8" ry="18"/>
<text text-anchor="middle" x="96" y="-62.6" font-family="Times,serif" font-size="14.00">UserRepository</text>
</g>
<!-- UserRepository&#45;&gt;MongoModule -->
<g id="edge17" class="edge">
<title>UserRepository&#45;&gt;MongoModule</title>
<path fill="none" stroke="black" d="M96,-84.91C96,-104.14 96,-131.8 96,-131.8 96,-131.8 808.88,-131.8 808.88,-131.8"/>
<polygon fill="black" stroke="black" points="808.88,-135.3 818.88,-131.8 808.88,-128.3 808.88,-135.3"/>
</g>
</g>
</svg>
