<?xml version="1.0" encoding="UTF-8" standalone="no"?>
<!DOCTYPE svg PUBLIC "-//W3C//DTD SVG 1.1//EN"
 "http://www.w3.org/Graphics/SVG/1.1/DTD/svg11.dtd">
<!-- Generated by graphviz version 5.0.0 (20220707.1540)
 -->
<!-- Title: dependencies Pages: 1 -->
<svg width="334pt" height="174pt"
 viewBox="0.00 0.00 334.00 173.80" xmlns="http://www.w3.org/2000/svg" xmlns:xlink="http://www.w3.org/1999/xlink">
<g id="graph0" class="graph" transform="scale(1 1) rotate(0) translate(4 169.8)">
<title>dependencies</title>
<polygon fill="white" stroke="transparent" points="-4,4 -4,-169.8 330,-169.8 330,4 -4,4"/>
<text text-anchor="middle" x="163" y="-8.2" font-family="sans-serif" font-size="14.00">dependencies</text>
<g id="clust1" class="cluster">
<title>cluster_AppModule</title>
<polygon fill="none" stroke="black" stroke-dasharray="1,5" points="8,-32.8 8,-157.8 318,-157.8 318,-32.8 8,-32.8"/>
</g>
<g id="clust6" class="cluster">
<title>cluster_AppModule_providers</title>
<polygon fill="none" stroke="black" points="176,-40.8 176,-92.8 310,-92.8 310,-40.8 176,-40.8"/>
</g>
<g id="clust3" class="cluster">
<title>cluster_AppModule_imports</title>
<polygon fill="none" stroke="black" points="16,-40.8 16,-92.8 168,-92.8 168,-40.8 16,-40.8"/>
</g>
<!-- InfrastructureModule -->
<g id="node1" class="node">
<title>InfrastructureModule</title>
<polygon fill="#8dd3c7" stroke="black" points="159.73,-84.8 156.73,-88.8 135.73,-88.8 132.73,-84.8 24.27,-84.8 24.27,-48.8 159.73,-48.8 159.73,-84.8"/>
<text text-anchor="middle" x="92" y="-62.6" font-family="Times,serif" font-size="14.00">InfrastructureModule</text>
</g>
<!-- AppModule -->
<g id="node2" class="node">
<title>AppModule</title>
<polygon fill="#8dd3c7" stroke="black" points="208.66,-149.8 205.66,-153.8 184.66,-153.8 181.66,-149.8 125.34,-149.8 125.34,-113.8 208.66,-113.8 208.66,-149.8"/>
<text text-anchor="middle" x="167" y="-127.6" font-family="Times,serif" font-size="14.00">AppModule</text>
</g>
<!-- InfrastructureModule&#45;&gt;AppModule -->
<g id="edge1" class="edge">
<title>InfrastructureModule&#45;&gt;AppModule</title>
<path fill="none" stroke="black" d="M142.52,-84.91C142.52,-84.91 142.52,-103.79 142.52,-103.79"/>
<polygon fill="black" stroke="black" points="139.02,-103.79 142.52,-113.79 146.02,-103.79 139.02,-103.79"/>
</g>
<!-- AuthService -->
<g id="node3" class="node">
<title>AuthService</title>
<ellipse fill="#fdb462" stroke="black" cx="243" cy="-66.8" rx="59.11" ry="18"/>
<text text-anchor="middle" x="243" y="-62.6" font-family="Times,serif" font-size="14.00">AuthService</text>
</g>
<!-- AuthService&#45;&gt;AppModule -->
<g id="edge2" class="edge">
<title>AuthService&#45;&gt;AppModule</title>
<path fill="none" stroke="black" d="M196.26,-78.12C196.26,-78.12 196.26,-103.74 196.26,-103.74"/>
<polygon fill="black" stroke="black" points="192.76,-103.74 196.26,-113.74 199.76,-103.74 192.76,-103.74"/>
</g>
</g>
</svg>
